<!-- Generated by IcoMoon.io -->
<svg version="1.1" xmlns="http://www.w3.org/2000/svg" width="32" height="32" viewBox="0 0 32 32">
<title>home</title>
<path d="M15.531 2.426c0.569-0.569 1.491-0.569 2.059 0l10.983 10.97c0.569 0.569 0.569 1.489 0 2.056s-1.491 0.569-2.059 0l-9.954-9.942-10.075 10.063c-0.569 0.569-1.491 0.569-2.059 0s-0.569-1.489 0-2.056l11.104-11.091z"></path>
<path d="M7.063 28.57c0 0.796 0.66 1.441 1.473 1.44h16.079c0.815 0 1.474-0.645 1.473-1.44s-0.66-1.441-1.473-1.44h-14.605v-9.671c0-0.796-0.66-1.461-1.473-1.46s-1.474 0.664-1.473 1.46v11.111z"></path>
</svg>
