<!-- Generated by IcoMoon.io -->
<svg version="1.1" xmlns="http://www.w3.org/2000/svg" width="32" height="32" viewBox="0 0 32 32">
<title>link_off</title>
<path d="M2.688 5.688l1.688-1.688 22.312 22.312-1.688 1.688-5.375-5.312h-2.312v-2.312l-3-3.063h-3.625v-2.625h0.937l-2.751-2.751q-1.563 0.188-2.625 1.344t-1.063 2.719q0 1.688 1.219 2.907t2.907 1.219h5.375v2.563h-5.375q-2.751 0-4.688-1.969t-1.937-4.719q0-1.875 1.188-3.688t2.937-2.5zM21.312 14.688v2.625h-0.251l-2.625-2.625h2.875zM22.688 9.312q2.751 0 4.688 1.969t1.937 4.719q0 4.063-3.625 5.937l-1.937-1.937q1.312-0.312 2.188-1.437t0.875-2.563q0-1.688-1.219-2.907t-2.907-1.219h-5.375v-2.563h5.375z"></path>
</svg>
