<!-- Generated by IcoMoon.io -->
<svg version="1.1" xmlns="http://www.w3.org/2000/svg" width="32" height="32" viewBox="0 0 32 32">
<title>twitter</title>
<path d="M27.777 7.016c-0.248 0.323-0.521 0.633-0.821 0.928-0.311 0.309-0.463 0.756-0.371 1.211 0.049 0.243 0.080 0.539 0.081 0.845 0 7.008-3.239 11.961-7.747 14.531-3.529 2.012-7.917 2.607-12.296 1.493 1.66-0.481 3.28-1.228 4.791-2.253 0.196-0.132 0.364-0.324 0.469-0.561 0.299-0.673-0.004-1.461-0.677-1.76-3.699-1.644-5.507-3.908-6.359-6.124-0.556-1.445-0.728-2.931-0.693-4.303 0.028-1.081 0.184-2.080 0.371-2.909 0.527 0.456 1.072 0.94 1.648 1.383 2.735 2.103 6.165 3.307 9.861 3.211 0.721-0.020 1.299-0.609 1.299-1.333v-1.348c-0.003-0.239 0.012-0.476 0.045-0.712 0.151-1.075 0.672-2.092 1.549-2.855 0.967-0.841 2.181-1.211 3.368-1.128s2.337 0.617 3.179 1.584c0.336 0.381 0.865 0.555 1.377 0.405 0.308-0.089 0.617-0.191 0.927-0.304zM29.899 2.911c-0.987 0.696-2.031 1.235-3.049 1.607-1.241-1.115-2.788-1.736-4.368-1.847-1.864-0.129-3.781 0.452-5.303 1.776-1.381 1.201-2.203 2.809-2.44 4.496-0.049 0.353-0.073 0.711-0.072 1.067-2.563-0.189-4.925-1.133-6.868-2.628-1.033-0.795-1.948-1.745-2.712-2.82-0.427-0.6-1.259-0.743-1.859-0.316-0.205 0.145-0.356 0.337-0.447 0.545 0 0-0.176 0.399-0.38 1.013-0.149 0.449-0.321 1.033-0.476 1.72-0.217 0.963-0.403 2.136-0.435 3.428-0.041 1.636 0.16 3.483 0.869 5.328 0.911 2.367 2.621 4.637 5.529 6.431-2.092 0.968-4.327 1.385-6.497 1.289-0.736-0.032-1.359 0.537-1.391 1.273-0.023 0.519 0.253 0.981 0.684 1.224 6.54 3.633 13.901 3.571 19.555 0.348 5.388-3.068 9.093-8.933 9.093-16.845-0.001-0.223-0.011-0.44-0.031-0.652 1.341-1.487 2.235-3.239 2.661-5.041 0.169-0.716-0.275-1.435-0.991-1.604-0.387-0.092-0.773-0.004-1.076 0.208z"></path>
</svg>
