<?xml version="1.0" standalone="no"?>
<!DOCTYPE svg PUBLIC "-//W3C//DTD SVG 20010904//EN"
 "http://www.w3.org/TR/2001/REC-SVG-20010904/DTD/svg10.dtd">
<svg version="1.0" xmlns="http://www.w3.org/2000/svg"
 width="260.000000pt" height="260.000000pt" viewBox="0 0 260.000000 260.000000"
 preserveAspectRatio="xMidYMid meet">
<metadata>
Created by potrace 1.11, written by Peter Selinger 2001-2013
</metadata>
<g transform="translate(0.000000,260.000000) scale(0.100000,-0.100000)"
fill="#000000" stroke="none">
<path d="M1208 2535 c-2 -1 -30 -5 -63 -9 -118 -12 -256 -61 -349 -124 -15
-11 -55 -46 -88 -78 -254 -248 -256 -643 -4 -894 106 -106 246 -169 397 -178
l86 -5 -1 -441 c-1 -418 -2 -444 -20 -471 -20 -30 -44 -51 -81 -70 -15 -8 -20
-22 -21 -53 -2 -40 -1 -42 25 -36 160 39 316 133 380 231 62 93 60 72 61 899
1 816 0 805 56 900 30 52 133 156 223 225 l71 53 -28 29 -27 28 -307 -2 c-168
0 -308 -2 -310 -4z"/>
<path d="M1942 2401 c-186 -140 -255 -237 -288 -401 -4 -19 -8 -325 -10 -680
-1 -355 -5 -681 -7 -725 -9 -146 -63 -262 -162 -353 -201 -184 -498 -174 -647
23 -40 53 -46 67 -25 60 188 -63 332 178 185 310 -45 41 -79 56 -128 57 -134
2 -234 -108 -233 -254 1 -217 236 -390 528 -388 341 1 614 167 737 448 29 67
67 207 74 272 2 30 8 73 11 95 3 22 7 308 8 635 1 327 6 622 9 655 9 77 31
152 69 238 27 61 29 70 15 83 -14 14 -28 6 -136 -75z"/>
</g>
</svg>
