<!-- Generated by IcoMoon.io -->
<svg version="1.1" xmlns="http://www.w3.org/2000/svg" width="32" height="32" viewBox="0 0 32 32">
<title>format_list_bulleted</title>
<path d="M9.312 6.688h18.688v2.625h-18.688v-2.625zM9.312 17.312v-2.625h18.688v2.625h-18.688zM9.312 25.312v-2.625h18.688v2.625h-18.688zM5.312 22q0.812 0 1.407 0.593t0.593 1.407-0.593 1.407-1.407 0.593-1.407-0.593-0.593-1.407 0.593-1.407 1.407-0.593zM5.312 6q0.812 0 1.407 0.563t0.593 1.437-0.593 1.437-1.407 0.563-1.407-0.563-0.593-1.437 0.593-1.437 1.407-0.563zM5.312 14q0.812 0 1.407 0.563t0.593 1.437-0.593 1.437-1.407 0.563-1.407-0.563-0.593-1.437 0.593-1.437 1.407-0.563z"></path>
</svg>
