<!-- Generated by IcoMoon.io -->
<svg version="1.1" xmlns="http://www.w3.org/2000/svg" width="32" height="32" viewBox="0 0 32 32">
<title>link1</title>
<path d="M22.688 9.312q2.751 0 4.688 1.969t1.937 4.719-1.937 4.719-4.688 1.969h-5.375v-2.563h5.375q1.688 0 2.907-1.219t1.219-2.907-1.219-2.907-2.907-1.219h-5.375v-2.563h5.375zM10.688 17.312v-2.625h10.625v2.625h-10.625zM5.188 16q0 1.688 1.219 2.907t2.907 1.219h5.375v2.563h-5.375q-2.751 0-4.688-1.969t-1.937-4.719 1.937-4.719 4.688-1.969h5.375v2.563h-5.375q-1.688 0-2.907 1.219t-1.219 2.907z"></path>
</svg>
