<!-- Generated by IcoMoon.io -->
<svg version="1.1" xmlns="http://www.w3.org/2000/svg" width="32" height="32" viewBox="0 0 32 32">
<title>strikethrough_s</title>
<path d="M12.5 17.5q0 3.375 3.875 3.375 3.063 0 3.063-2.251 0-1-0.407-1.437t-1.469-0.937q-0.063 0-0.219-0.063t-0.281-0.125-0.251-0.063h-12.812v-2.688h24v2.688h-5.188q0 0.063 0.093 0.219t0.156 0.219q0.437 1.063 0.437 2.188 0 3.812-4.188 5-1.312 0.375-2.875 0.375-1 0-1.937-0.188-2.251-0.437-3.5-1.375-2.437-1.812-2.437-4.937h3.937zM19.437 10q0-2.812-3.188-2.812-2.251 0-2.937 1.375-0.188 0.375-0.188 0.875 0 0.937 1 1.625 1 0.625 1.875 0.937h-6.125q0-0.063-0.125-0.156t-0.125-0.156q-0.5-0.812-0.5-2.251 0-2.312 2-3.937 1.937-1.5 5.188-1.5 3.312 0 5.188 1.688 1.937 1.751 1.937 4.312h-4z"></path>
</svg>
