<svg aria-hidden="true" style="position: absolute; width: 0; height: 0; overflow: hidden;" version="1.1" xmlns="http://www.w3.org/2000/svg" xmlns:xlink="http://www.w3.org/1999/xlink">
<defs>
<symbol id="icon-link_off" viewBox="0 0 32 32">
<title>link_off</title>
<path d="M2.688 5.688l1.688-1.688 22.312 22.312-1.688 1.688-5.375-5.312h-2.312v-2.312l-3-3.063h-3.625v-2.625h0.937l-2.751-2.751q-1.563 0.188-2.625 1.344t-1.063 2.719q0 1.688 1.219 2.907t2.907 1.219h5.375v2.563h-5.375q-2.751 0-4.688-1.969t-1.937-4.719q0-1.875 1.188-3.688t2.937-2.5zM21.312 14.688v2.625h-0.251l-2.625-2.625h2.875zM22.688 9.312q2.751 0 4.688 1.969t1.937 4.719q0 4.063-3.625 5.937l-1.937-1.937q1.312-0.312 2.188-1.437t0.875-2.563q0-1.688-1.219-2.907t-2.907-1.219h-5.375v-2.563h5.375z"></path>
</symbol>
<symbol id="icon-link1" viewBox="0 0 32 32">
<title>link1</title>
<path d="M22.688 9.312q2.751 0 4.688 1.969t1.937 4.719-1.937 4.719-4.688 1.969h-5.375v-2.563h5.375q1.688 0 2.907-1.219t1.219-2.907-1.219-2.907-2.907-1.219h-5.375v-2.563h5.375zM10.688 17.312v-2.625h10.625v2.625h-10.625zM5.188 16q0 1.688 1.219 2.907t2.907 1.219h5.375v2.563h-5.375q-2.751 0-4.688-1.969t-1.937-4.719 1.937-4.719 4.688-1.969h5.375v2.563h-5.375q-1.688 0-2.907 1.219t-1.219 2.907z"></path>
</symbol>
<symbol id="icon-strikethrough_s" viewBox="0 0 32 32">
<title>strikethrough_s</title>
<path d="M12.5 17.5q0 3.375 3.875 3.375 3.063 0 3.063-2.251 0-1-0.407-1.437t-1.469-0.937q-0.063 0-0.219-0.063t-0.281-0.125-0.251-0.063h-12.812v-2.688h24v2.688h-5.188q0 0.063 0.093 0.219t0.156 0.219q0.437 1.063 0.437 2.188 0 3.812-4.188 5-1.312 0.375-2.875 0.375-1 0-1.937-0.188-2.251-0.437-3.5-1.375-2.437-1.812-2.437-4.937h3.937zM19.437 10q0-2.812-3.188-2.812-2.251 0-2.937 1.375-0.188 0.375-0.188 0.875 0 0.937 1 1.625 1 0.625 1.875 0.937h-6.125q0-0.063-0.125-0.156t-0.125-0.156q-0.5-0.812-0.5-2.251 0-2.312 2-3.937 1.937-1.5 5.188-1.5 3.312 0 5.188 1.688 1.937 1.751 1.937 4.312h-4z"></path>
</symbol>
<symbol id="icon-twitter" viewBox="0 0 32 32">
<title>twitter</title>
<path d="M27.777 7.016c-0.248 0.323-0.521 0.633-0.821 0.928-0.311 0.309-0.463 0.756-0.371 1.211 0.049 0.243 0.080 0.539 0.081 0.845 0 7.008-3.239 11.961-7.747 14.531-3.529 2.012-7.917 2.607-12.296 1.493 1.66-0.481 3.28-1.228 4.791-2.253 0.196-0.132 0.364-0.324 0.469-0.561 0.299-0.673-0.004-1.461-0.677-1.76-3.699-1.644-5.507-3.908-6.359-6.124-0.556-1.445-0.728-2.931-0.693-4.303 0.028-1.081 0.184-2.080 0.371-2.909 0.527 0.456 1.072 0.94 1.648 1.383 2.735 2.103 6.165 3.307 9.861 3.211 0.721-0.020 1.299-0.609 1.299-1.333v-1.348c-0.003-0.239 0.012-0.476 0.045-0.712 0.151-1.075 0.672-2.092 1.549-2.855 0.967-0.841 2.181-1.211 3.368-1.128s2.337 0.617 3.179 1.584c0.336 0.381 0.865 0.555 1.377 0.405 0.308-0.089 0.617-0.191 0.927-0.304zM29.899 2.911c-0.987 0.696-2.031 1.235-3.049 1.607-1.241-1.115-2.788-1.736-4.368-1.847-1.864-0.129-3.781 0.452-5.303 1.776-1.381 1.201-2.203 2.809-2.44 4.496-0.049 0.353-0.073 0.711-0.072 1.067-2.563-0.189-4.925-1.133-6.868-2.628-1.033-0.795-1.948-1.745-2.712-2.82-0.427-0.6-1.259-0.743-1.859-0.316-0.205 0.145-0.356 0.337-0.447 0.545 0 0-0.176 0.399-0.38 1.013-0.149 0.449-0.321 1.033-0.476 1.72-0.217 0.963-0.403 2.136-0.435 3.428-0.041 1.636 0.16 3.483 0.869 5.328 0.911 2.367 2.621 4.637 5.529 6.431-2.092 0.968-4.327 1.385-6.497 1.289-0.736-0.032-1.359 0.537-1.391 1.273-0.023 0.519 0.253 0.981 0.684 1.224 6.54 3.633 13.901 3.571 19.555 0.348 5.388-3.068 9.093-8.933 9.093-16.845-0.001-0.223-0.011-0.44-0.031-0.652 1.341-1.487 2.235-3.239 2.661-5.041 0.169-0.716-0.275-1.435-0.991-1.604-0.387-0.092-0.773-0.004-1.076 0.208z"></path>
</symbol>
<symbol id="icon-insert_emoticon" viewBox="0 0 32 32">
<title>insert_emoticon</title>
<path d="M16 23.312q-2.312 0-4.156-1.281t-2.656-3.344h13.625q-0.812 2.063-2.656 3.344t-4.156 1.281zM11.312 14.688q-0.812 0-1.407-0.593t-0.593-1.407 0.593-1.407 1.407-0.593 1.407 0.593 0.593 1.407-0.593 1.407-1.407 0.593zM20.688 14.688q-0.812 0-1.407-0.593t-0.593-1.407 0.593-1.407 1.407-0.593 1.407 0.593 0.593 1.407-0.593 1.407-1.407 0.593zM16 26.688q4.375 0 7.531-3.156t3.156-7.531-3.156-7.531-7.531-3.156-7.531 3.156-3.156 7.531 3.156 7.531 7.531 3.156zM16 2.688q5.5 0 9.407 3.907t3.907 9.407-3.907 9.407-9.407 3.907-9.407-3.907-3.907-9.407 3.907-9.407 9.407-3.907z"></path>
</symbol>
<symbol id="icon-insert_photo" viewBox="0 0 32 32">
<title>insert_photo</title>
<path d="M11.312 18l-4.625 6h18.625l-6-8-4.625 6zM28 25.312q0 1.063-0.812 1.875t-1.875 0.812h-18.625q-1.063 0-1.875-0.812t-0.812-1.875v-18.625q0-1.063 0.812-1.875t1.875-0.812h18.625q1.063 0 1.875 0.812t0.812 1.875v18.625z"></path>
</symbol>
<symbol id="icon-format_bold" viewBox="0 0 32 32">
<title>format_bold</title>
<path d="M18 20.688q0.875 0 1.437-0.593t0.563-1.407-0.563-1.407-1.437-0.593h-4.688v4h4.688zM13.312 8.688v4h4q0.812 0 1.407-0.593t0.593-1.407-0.593-1.407-1.407-0.593h-4zM20.812 14.375q2.875 1.312 2.875 4.563 0 2.125-1.407 3.593t-3.531 1.469h-9.437v-18.688h8.375q2.251 0 3.781 1.563t1.531 3.812-2.188 3.688z"></path>
</symbol>
<symbol id="icon-format_indent_decrease" viewBox="0 0 32 32">
<title>format_indent_decrease</title>
<path d="M14.688 17.312v-2.625h13.312v2.625h-13.312zM14.688 12v-2.688h13.312v2.688h-13.312zM4 4h24v2.688h-24v-2.688zM4 28v-2.688h24v2.688h-24zM4 16l5.312-5.312v10.625zM14.688 22.688v-2.688h13.312v2.688h-13.312z"></path>
</symbol>
<symbol id="icon-format_indent_increase" viewBox="0 0 32 32">
<title>format_indent_increase</title>
<path d="M14.688 17.312v-2.625h13.312v2.625h-13.312zM14.688 12v-2.688h13.312v2.688h-13.312zM4 4h24v2.688h-24v-2.688zM14.688 22.688v-2.688h13.312v2.688h-13.312zM4 10.688l5.312 5.312-5.312 5.312v-10.625zM4 28v-2.688h24v2.688h-24z"></path>
</symbol>
<symbol id="icon-format_italic" viewBox="0 0 32 32">
<title>format_italic</title>
<path d="M13.312 5.312h10.688v4h-3.751l-4.5 10.688h2.937v4h-10.688v-4h3.751l4.5-10.688h-2.937v-4z"></path>
</symbol>
<symbol id="icon-format_list_bulleted" viewBox="0 0 32 32">
<title>format_list_bulleted</title>
<path d="M9.312 6.688h18.688v2.625h-18.688v-2.625zM9.312 17.312v-2.625h18.688v2.625h-18.688zM9.312 25.312v-2.625h18.688v2.625h-18.688zM5.312 22q0.812 0 1.407 0.593t0.593 1.407-0.593 1.407-1.407 0.593-1.407-0.593-0.593-1.407 0.593-1.407 1.407-0.593zM5.312 6q0.812 0 1.407 0.563t0.593 1.437-0.593 1.437-1.407 0.563-1.407-0.563-0.593-1.437 0.593-1.437 1.407-0.563zM5.312 14q0.812 0 1.407 0.563t0.593 1.437-0.593 1.437-1.407 0.563-1.407-0.563-0.593-1.437 0.593-1.437 1.407-0.563z"></path>
</symbol>
<symbol id="icon-format_list_numbered" viewBox="0 0 32 32">
<title>format_list_numbered</title>
<path d="M9.312 17.312v-2.625h18.688v2.625h-18.688zM9.312 25.312v-2.625h18.688v2.625h-18.688zM9.312 6.688h18.688v2.625h-18.688v-2.625zM2.688 14.688v-1.375h4v1.251l-2.437 2.751h2.437v1.375h-4v-1.251l2.375-2.751h-2.375zM4 10.688v-4h-1.312v-1.375h2.625v5.375h-1.312zM2.688 22.688v-1.375h4v5.375h-4v-1.375h2.625v-0.625h-1.312v-1.375h1.312v-0.625h-2.625z"></path>
</symbol>
<symbol id="icon-format_quote" viewBox="0 0 32 32">
<title>format_quote</title>
<path d="M18.688 22.688l2.625-5.375h-4v-8h8v8l-2.625 5.375h-4zM8 22.688l2.688-5.375h-4v-8h8v8l-2.688 5.375h-4z"></path>
</symbol>
<symbol id="icon-format_size" viewBox="0 0 32 32">
<title>format_size</title>
<path d="M4 16v-4h12v4h-4v9.312h-4v-9.312h-4zM12 5.312h17.312v4h-6.625v16h-4v-16h-6.688v-4z"></path>
</symbol>
<symbol id="icon-code" viewBox="0 0 32 32">
<title>code</title>
<path d="M19.437 22.125l6.188-6.125-6.188-6.125 1.875-1.875 8 8-8 8zM12.563 22.125l-1.875 1.875-8-8 8-8 1.875 1.875-6.188 6.125z"></path>
</symbol>
<symbol id="icon-smile" viewBox="0 0 32 32">
<title>smile</title>
<path d="M16 32c8.837 0 16-7.163 16-16s-7.163-16-16-16-16 7.163-16 16 7.163 16 16 16zM16 3c7.18 0 13 5.82 13 13s-5.82 13-13 13-13-5.82-13-13 5.82-13 13-13zM8 10c0-1.105 0.895-2 2-2s2 0.895 2 2c0 1.105-0.895 2-2 2s-2-0.895-2-2zM20 10c0-1.105 0.895-2 2-2s2 0.895 2 2c0 1.105-0.895 2-2 2s-2-0.895-2-2zM22.003 19.602l2.573 1.544c-1.749 2.908-4.935 4.855-8.576 4.855s-6.827-1.946-8.576-4.855l2.573-1.544c1.224 2.036 3.454 3.398 6.003 3.398s4.779-1.362 6.003-3.398z"></path>
</symbol>
<symbol id="icon-home" viewBox="0 0 32 32">
<title>home</title>
<path d="M15.531 2.426c0.569-0.569 1.491-0.569 2.059 0l10.983 10.97c0.569 0.569 0.569 1.489 0 2.056s-1.491 0.569-2.059 0l-9.954-9.942-10.075 10.063c-0.569 0.569-1.491 0.569-2.059 0s-0.569-1.489 0-2.056l11.104-11.091z"></path>
<path d="M7.063 28.57c0 0.796 0.66 1.441 1.473 1.44h16.079c0.815 0 1.474-0.645 1.473-1.44s-0.66-1.441-1.473-1.44h-14.605v-9.671c0-0.796-0.66-1.461-1.473-1.46s-1.474 0.664-1.473 1.46v11.111z"></path>
</symbol>
<symbol id="icon-pen" viewBox="0 0 32 32">
<title>pen</title>
<path d="M21.724 3.057l-18 18c-0.156 0.155-0.28 0.357-0.344 0.592l-2 7.333c-0.061 0.217-0.065 0.461 0 0.701 0.193 0.711 0.927 1.129 1.637 0.936l7.333-2c0.212-0.056 0.42-0.172 0.592-0.344l18-18c0.996-0.996 1.495-2.305 1.495-3.609s-0.499-2.613-1.495-3.609-2.305-1.495-3.609-1.495-2.613 0.499-3.609 1.495zM23.609 4.943c0.476-0.476 1.099-0.713 1.724-0.713s1.248 0.237 1.724 0.715 0.713 1.097 0.713 1.723-0.237 1.248-0.713 1.724l-17.749 17.749-4.741 1.293 1.293-4.74z"></path>
</symbol>
<symbol id="icon-glasses" viewBox="0 0 32 32">
<title>glasses</title>
<path d="M30.739 13.9c0.706 0 1.261 0.584 1.261 1.283s-0.554 1.283-1.261 1.283h-0.306c-0.23 3.636-3.126 6.533-6.676 6.533-3.701 0-6.691-3.148-6.691-7 0-0.651-0.49-1.167-1.067-1.167s-1.067 0.516-1.067 1.167c0 3.852-2.99 7-6.691 7-3.55 0-6.446-2.897-6.676-6.533h-0.306c-0.706 0-1.261-0.584-1.261-1.283s0.554-1.283 1.261-1.283h0.599c0.864-2.874 3.429-4.9 6.383-4.9 2.537 0 4.807 1.496 5.94 3.782 0.543-0.333 1.167-0.515 1.817-0.515s1.274 0.182 1.817 0.515c1.133-2.286 3.404-3.782 5.94-3.782 2.954 0 5.519 2.026 6.383 4.9h0.599zM8.242 20.433c2.288 0 4.17-1.981 4.17-4.433s-1.881-4.433-4.17-4.433c-2.288 0-4.17 1.981-4.17 4.433s1.881 4.433 4.17 4.433zM23.758 20.433c2.288 0 4.17-1.981 4.17-4.433s-1.881-4.433-4.17-4.433c-2.288 0-4.17 1.981-4.17 4.433s1.881 4.433 4.17 4.433z"></path>
</symbol>
<symbol id="icon-search" viewBox="0 0 24 24">
<title>search</title>
<path d="M16.041 15.856c-0.034 0.026-0.067 0.055-0.099 0.087s-0.060 0.064-0.087 0.099c-1.258 1.213-2.969 1.958-4.855 1.958-1.933 0-3.682-0.782-4.95-2.050s-2.050-3.017-2.050-4.95 0.782-3.682 2.050-4.95 3.017-2.050 4.95-2.050 3.682 0.782 4.95 2.050 2.050 3.017 2.050 4.95c0 1.886-0.745 3.597-1.959 4.856zM21.707 20.293l-3.675-3.675c1.231-1.54 1.968-3.493 1.968-5.618 0-2.485-1.008-4.736-2.636-6.364s-3.879-2.636-6.364-2.636-4.736 1.008-6.364 2.636-2.636 3.879-2.636 6.364 1.008 4.736 2.636 6.364 3.879 2.636 6.364 2.636c2.125 0 4.078-0.737 5.618-1.968l3.675 3.675c0.391 0.391 1.024 0.391 1.414 0s0.391-1.024 0-1.414z"></path>
</symbol>
<symbol id="icon-warning" viewBox="0 0 24 24">
<title>warning</title>
<path d="M11.148 4.374c0.073-0.123 0.185-0.242 0.334-0.332 0.236-0.143 0.506-0.178 0.756-0.116s0.474 0.216 0.614 0.448l8.466 14.133c0.077 0.131 0.128 0.298 0.13 0.482 0.003 0.276-0.105 0.526-0.285 0.71s-0.428 0.298-0.693 0.301h-16.937c-0.152-0.001-0.321-0.041-0.481-0.134-0.239-0.138-0.399-0.359-0.466-0.607s-0.038-0.519 0.092-0.745zM9.432 3.346l-8.47 14.14c-0.422 0.731-0.506 1.55-0.308 2.29s0.68 1.408 1.398 1.822c0.464 0.268 0.976 0.4 1.475 0.402h16.943c0.839-0.009 1.587-0.354 2.123-0.902s0.864-1.303 0.855-2.131c-0.006-0.536-0.153-1.044-0.406-1.474l-8.474-14.147c-0.432-0.713-1.11-1.181-1.854-1.363s-1.561-0.081-2.269 0.349c-0.429 0.26-0.775 0.615-1.012 1.014zM11 9v4c0 0.552 0.448 1 1 1s1-0.448 1-1v-4c0-0.552-0.448-1-1-1s-1 0.448-1 1zM13 17c0-0.552-0.448-1-1-1s-1 0.448-1 1 0.448 1 1 1 1-0.448 1-1z"></path>
</symbol>
<symbol id="icon-bell-off" viewBox="0 0 24 24">
<title>bell-off</title>
<path d="M12.865 20.498c-0.139 0.239-0.359 0.399-0.608 0.465s-0.52 0.037-0.759-0.101c-0.162-0.094-0.283-0.222-0.359-0.357-0.274-0.48-0.884-0.647-1.364-0.373s-0.647 0.884-0.373 1.364c0.25 0.439 0.623 0.823 1.093 1.096 0.716 0.416 1.535 0.501 2.276 0.304s1.409-0.678 1.824-1.394c0.277-0.478 0.114-1.090-0.363-1.367s-1.090-0.114-1.367 0.363zM19 7.997c0.002-1.931-0.78-3.682-2.043-4.948-1.264-1.268-3.014-2.055-4.947-2.058-1.448-0.002-2.799 0.437-3.9 1.18-0.457 0.309-0.578 0.931-0.269 1.389s0.931 0.578 1.389 0.269c0.776-0.524 1.737-0.839 2.778-0.838 1.381 0.002 2.629 0.562 3.533 1.47 0.902 0.905 1.458 2.15 1.459 3.526-0.042 1.658 0.173 3.476 0.665 5.277 0.146 0.533 0.695 0.847 1.228 0.701s0.847-0.695 0.701-1.228c-0.443-1.624-0.632-3.249-0.594-4.707 0-0.005 0-0.011 0-0.016 0-0.004 0-0.008 0-0.012 0-0.001 0-0.003 0-0.004zM6.996 8.411l7.59 7.589h-9.437c0.872-1.428 1.783-3.812 1.847-7.589zM0.293 1.707l4.856 4.856c-0.106 0.493-0.155 0.984-0.149 1.45 0 6.114-2.393 8.034-2.563 8.161-0.453 0.308-0.573 0.924-0.269 1.381 0.192 0.287 0.506 0.443 0.832 0.445h13.586l5.707 5.707c0.391 0.391 1.024 0.391 1.414 0s0.391-1.024 0-1.414l-22-22c-0.391-0.391-1.024-0.391-1.414 0s-0.391 1.024 0 1.414z"></path>
</symbol>
<symbol id="icon-bell" viewBox="0 0 24 24">
<title>bell</title>
<path d="M17 8c0 4.011 0.947 6.52 1.851 8h-13.702c0.904-1.48 1.851-3.989 1.851-8 0-1.381 0.559-2.63 1.464-3.536s2.155-1.464 3.536-1.464 2.63 0.559 3.536 1.464 1.464 2.155 1.464 3.536zM19 8c0-1.933-0.785-3.684-2.050-4.95s-3.017-2.050-4.95-2.050-3.684 0.785-4.95 2.050-2.050 3.017-2.050 4.95c0 6.127-2.393 8.047-2.563 8.174-0.453 0.308-0.573 0.924-0.269 1.381 0.192 0.287 0.506 0.443 0.832 0.445h18c0.552 0 1-0.448 1-1 0-0.339-0.168-0.638-0.429-0.821-0.176-0.13-2.571-2.050-2.571-8.179zM12.865 20.498c-0.139 0.239-0.359 0.399-0.608 0.465s-0.52 0.037-0.759-0.101c-0.162-0.094-0.283-0.222-0.359-0.357-0.274-0.48-0.884-0.647-1.364-0.373s-0.647 0.884-0.373 1.364c0.25 0.439 0.623 0.823 1.093 1.096 0.716 0.416 1.535 0.501 2.276 0.304s1.409-0.678 1.824-1.394c0.277-0.478 0.114-1.090-0.363-1.367s-1.090-0.114-1.367 0.363z"></path>
</symbol>
<symbol id="icon-check" viewBox="0 0 24 24">
<title>check</title>
<path d="M19.293 5.293l-10.293 10.293-4.293-4.293c-0.391-0.391-1.024-0.391-1.414 0s-0.391 1.024 0 1.414l5 5c0.391 0.391 1.024 0.391 1.414 0l11-11c0.391-0.391 0.391-1.024 0-1.414s-1.024-0.391-1.414 0z"></path>
</symbol>
<symbol id="icon-x" viewBox="0 0 24 24">
<title>x</title>
<path d="M5.293 6.707l5.293 5.293-5.293 5.293c-0.391 0.391-0.391 1.024 0 1.414s1.024 0.391 1.414 0l5.293-5.293 5.293 5.293c0.391 0.391 1.024 0.391 1.414 0s0.391-1.024 0-1.414l-5.293-5.293 5.293-5.293c0.391-0.391 0.391-1.024 0-1.414s-1.024-0.391-1.414 0l-5.293 5.293-5.293-5.293c-0.391-0.391-1.024-0.391-1.414 0s-0.391 1.024 0 1.414z"></path>
</symbol>
<symbol id="icon-chevron-down" viewBox="0 0 24 24">
<title>chevron-down</title>
<path d="M5.293 9.707l6 6c0.391 0.391 1.024 0.391 1.414 0l6-6c0.391-0.391 0.391-1.024 0-1.414s-1.024-0.391-1.414 0l-5.293 5.293-5.293-5.293c-0.391-0.391-1.024-0.391-1.414 0s-0.391 1.024 0 1.414z"></path>
</symbol>
<symbol id="icon-chevron-left" viewBox="0 0 24 24">
<title>chevron-left</title>
<path d="M15.707 17.293l-5.293-5.293 5.293-5.293c0.391-0.391 0.391-1.024 0-1.414s-1.024-0.391-1.414 0l-6 6c-0.391 0.391-0.391 1.024 0 1.414l6 6c0.391 0.391 1.024 0.391 1.414 0s0.391-1.024 0-1.414z"></path>
</symbol>
<symbol id="icon-chevron-right" viewBox="0 0 24 24">
<title>chevron-right</title>
<path d="M9.707 18.707l6-6c0.391-0.391 0.391-1.024 0-1.414l-6-6c-0.391-0.391-1.024-0.391-1.414 0s-0.391 1.024 0 1.414l5.293 5.293-5.293 5.293c-0.391 0.391-0.391 1.024 0 1.414s1.024 0.391 1.414 0z"></path>
</symbol>
<symbol id="icon-chevron-up" viewBox="0 0 24 24">
<title>chevron-up</title>
<path d="M18.707 14.293l-6-6c-0.391-0.391-1.024-0.391-1.414 0l-6 6c-0.391 0.391-0.391 1.024 0 1.414s1.024 0.391 1.414 0l5.293-5.293 5.293 5.293c0.391 0.391 1.024 0.391 1.414 0s0.391-1.024 0-1.414z"></path>
</symbol>
<symbol id="icon-corner-up-left" viewBox="0 0 24 24">
<title>corner-up-left</title>
<path d="M21 20v-7c0-1.38-0.561-2.632-1.464-3.536s-2.156-1.464-3.536-1.464h-9.586l3.293-3.293c0.391-0.391 0.391-1.024 0-1.414s-1.024-0.391-1.414 0l-5 5c-0.096 0.096-0.168 0.206-0.217 0.324s-0.076 0.247-0.076 0.383 0.027 0.265 0.076 0.383c0.049 0.118 0.121 0.228 0.217 0.324l5 5c0.391 0.391 1.024 0.391 1.414 0s0.391-1.024 0-1.414l-3.293-3.293h9.586c0.829 0 1.577 0.335 2.121 0.879s0.879 1.292 0.879 2.121v7c0 0.552 0.448 1 1 1s1-0.448 1-1z"></path>
</symbol>
<symbol id="icon-file-text" viewBox="0 0 24 24">
<title>file-text</title>
<path d="M14 1h-8c-0.828 0-1.58 0.337-2.121 0.879s-0.879 1.293-0.879 2.121v16c0 0.828 0.337 1.58 0.879 2.121s1.293 0.879 2.121 0.879h12c0.828 0 1.58-0.337 2.121-0.879s0.879-1.293 0.879-2.121v-12c0-0.276-0.112-0.526-0.293-0.707l-6-6c-0.096-0.096-0.206-0.168-0.324-0.217-0.122-0.051-0.253-0.076-0.383-0.076zM17.586 7h-2.586v-2.586zM13 3v5c0 0.552 0.448 1 1 1h5v11c0 0.276-0.111 0.525-0.293 0.707s-0.431 0.293-0.707 0.293h-12c-0.276 0-0.525-0.111-0.707-0.293s-0.293-0.431-0.293-0.707v-16c0-0.276 0.111-0.525 0.293-0.707s0.431-0.293 0.707-0.293zM16 12h-8c-0.552 0-1 0.448-1 1s0.448 1 1 1h8c0.552 0 1-0.448 1-1s-0.448-1-1-1zM16 16h-8c-0.552 0-1 0.448-1 1s0.448 1 1 1h8c0.552 0 1-0.448 1-1s-0.448-1-1-1zM10 8h-2c-0.552 0-1 0.448-1 1s0.448 1 1 1h2c0.552 0 1-0.448 1-1s-0.448-1-1-1z"></path>
</symbol>
<symbol id="icon-hash" viewBox="0 0 24 24">
<title>hash</title>
<path d="M14.216 10l-0.444 4h-3.988l0.444-4zM15.006 2.89l-0.568 5.11h-3.988l0.543-4.89c0.061-0.549-0.335-1.043-0.883-1.104s-1.043 0.335-1.104 0.884l-0.568 5.11h-4.438c-0.552 0-1 0.448-1 1s0.448 1 1 1h4.216l-0.444 4h-3.772c-0.552 0-1 0.448-1 1s0.448 1 1 1h3.549l-0.543 4.89c-0.061 0.549 0.335 1.043 0.883 1.104s1.043-0.335 1.104-0.883l0.569-5.111h3.988l-0.543 4.89c-0.061 0.549 0.335 1.043 0.883 1.104s1.043-0.335 1.104-0.883l0.568-5.111h4.438c0.552 0 1-0.448 1-1s-0.448-1-1-1h-4.216l0.444-4h3.772c0.552 0 1-0.448 1-1s-0.448-1-1-1h-3.549l0.543-4.89c0.061-0.549-0.335-1.043-0.883-1.104s-1.043 0.335-1.104 0.883z"></path>
</symbol>
<symbol id="icon-heart" viewBox="0 0 24 24">
<title>heart</title>
<path d="M20.133 5.317c0.88 0.881 1.319 2.031 1.319 3.184s-0.44 2.303-1.319 3.182l-8.133 8.133-8.133-8.133c-0.879-0.879-1.318-2.029-1.318-3.183s0.439-2.304 1.318-3.183 2.029-1.318 3.183-1.318 2.304 0.439 3.183 1.318l1.060 1.060c0.391 0.391 1.024 0.391 1.414 0l1.062-1.062c0.879-0.879 2.029-1.318 3.182-1.317s2.303 0.44 3.182 1.319zM21.547 3.903c-1.269-1.269-2.934-1.904-4.596-1.905s-3.327 0.634-4.597 1.903l-0.354 0.355-0.353-0.353c-1.269-1.269-2.935-1.904-4.597-1.904s-3.328 0.635-4.597 1.904-1.904 2.935-1.904 4.597 0.635 3.328 1.904 4.597l8.84 8.84c0.391 0.391 1.024 0.391 1.414 0l8.84-8.84c1.269-1.269 1.904-2.934 1.905-4.596s-0.634-3.327-1.905-4.598z"></path>
</symbol>
<symbol id="icon-image" viewBox="0 0 24 24">
<title>image</title>
<path d="M5 2c-0.828 0-1.58 0.337-2.121 0.879s-0.879 1.293-0.879 2.121v14c0 0.828 0.337 1.58 0.879 2.121s1.293 0.879 2.121 0.879h14c0.828 0 1.58-0.337 2.121-0.879s0.879-1.293 0.879-2.121v-14c0-0.828-0.337-1.58-0.879-2.121s-1.293-0.879-2.121-0.879zM11 8.5c0-0.69-0.281-1.316-0.732-1.768s-1.078-0.732-1.768-0.732-1.316 0.281-1.768 0.732-0.732 1.078-0.732 1.768 0.281 1.316 0.732 1.768 1.078 0.732 1.768 0.732 1.316-0.281 1.768-0.732 0.732-1.078 0.732-1.768zM9 8.5c0 0.138-0.055 0.262-0.146 0.354s-0.216 0.146-0.354 0.146-0.262-0.055-0.354-0.146-0.146-0.216-0.146-0.354 0.055-0.262 0.146-0.354 0.216-0.146 0.354-0.146 0.262 0.055 0.354 0.146 0.146 0.216 0.146 0.354zM7.414 20l8.586-8.586 4 4v3.586c0 0.276-0.111 0.525-0.293 0.707s-0.431 0.293-0.707 0.293zM20 12.586l-3.293-3.293c-0.391-0.391-1.024-0.391-1.414 0l-10.644 10.644c-0.135-0.050-0.255-0.129-0.356-0.23-0.182-0.182-0.293-0.431-0.293-0.707v-14c0-0.276 0.111-0.525 0.293-0.707s0.431-0.293 0.707-0.293h14c0.276 0 0.525 0.111 0.707 0.293s0.293 0.431 0.293 0.707z"></path>
</symbol>
<symbol id="icon-info" viewBox="0 0 24 24">
<title>info</title>
<path d="M23 12c0-3.037-1.232-5.789-3.222-7.778s-4.741-3.222-7.778-3.222-5.789 1.232-7.778 3.222-3.222 4.741-3.222 7.778 1.232 5.789 3.222 7.778 4.741 3.222 7.778 3.222 5.789-1.232 7.778-3.222 3.222-4.741 3.222-7.778zM21 12c0 2.486-1.006 4.734-2.636 6.364s-3.878 2.636-6.364 2.636-4.734-1.006-6.364-2.636-2.636-3.878-2.636-6.364 1.006-4.734 2.636-6.364 3.878-2.636 6.364-2.636 4.734 1.006 6.364 2.636 2.636 3.878 2.636 6.364zM13 16v-4c0-0.552-0.448-1-1-1s-1 0.448-1 1v4c0 0.552 0.448 1 1 1s1-0.448 1-1zM13 8c0-0.552-0.448-1-1-1s-1 0.448-1 1 0.448 1 1 1 1-0.448 1-1z"></path>
</symbol>
<symbol id="icon-lock" viewBox="0 0 24 24">
<title>lock</title>
<path d="M5 12h14c0.276 0 0.525 0.111 0.707 0.293s0.293 0.431 0.293 0.707v7c0 0.276-0.111 0.525-0.293 0.707s-0.431 0.293-0.707 0.293h-14c-0.276 0-0.525-0.111-0.707-0.293s-0.293-0.431-0.293-0.707v-7c0-0.276 0.111-0.525 0.293-0.707s0.431-0.293 0.707-0.293zM18 10v-3c0-1.657-0.673-3.158-1.757-4.243s-2.586-1.757-4.243-1.757-3.158 0.673-4.243 1.757-1.757 2.586-1.757 4.243v3h-1c-0.828 0-1.58 0.337-2.121 0.879s-0.879 1.293-0.879 2.121v7c0 0.828 0.337 1.58 0.879 2.121s1.293 0.879 2.121 0.879h14c0.828 0 1.58-0.337 2.121-0.879s0.879-1.293 0.879-2.121v-7c0-0.828-0.337-1.58-0.879-2.121s-1.293-0.879-2.121-0.879zM8 10v-3c0-1.105 0.447-2.103 1.172-2.828s1.723-1.172 2.828-1.172 2.103 0.447 2.828 1.172 1.172 1.723 1.172 2.828v3z"></path>
</symbol>
<symbol id="icon-log-in" viewBox="0 0 24 24">
<title>log-in</title>
<path d="M15 4h4c0.276 0 0.525 0.111 0.707 0.293s0.293 0.431 0.293 0.707v14c0 0.276-0.111 0.525-0.293 0.707s-0.431 0.293-0.707 0.293h-4c-0.552 0-1 0.448-1 1s0.448 1 1 1h4c0.828 0 1.58-0.337 2.121-0.879s0.879-1.293 0.879-2.121v-14c0-0.828-0.337-1.58-0.879-2.121s-1.293-0.879-2.121-0.879h-4c-0.552 0-1 0.448-1 1s0.448 1 1 1zM12.586 11h-9.586c-0.552 0-1 0.448-1 1s0.448 1 1 1h9.586l-3.293 3.293c-0.391 0.391-0.391 1.024 0 1.414s1.024 0.391 1.414 0l5-5c0.096-0.096 0.168-0.206 0.217-0.324s0.076-0.247 0.076-0.383c0-0.13-0.025-0.261-0.076-0.383-0.049-0.118-0.121-0.228-0.217-0.324l-5-5c-0.391-0.391-1.024-0.391-1.414 0s-0.391 1.024 0 1.414z"></path>
</symbol>
<symbol id="icon-log-out" viewBox="0 0 24 24">
<title>log-out</title>
<path d="M9 20h-4c-0.276 0-0.525-0.111-0.707-0.293s-0.293-0.431-0.293-0.707v-14c0-0.276 0.111-0.525 0.293-0.707s0.431-0.293 0.707-0.293h4c0.552 0 1-0.448 1-1s-0.448-1-1-1h-4c-0.828 0-1.58 0.337-2.121 0.879s-0.879 1.293-0.879 2.121v14c0 0.828 0.337 1.58 0.879 2.121s1.293 0.879 2.121 0.879h4c0.552 0 1-0.448 1-1s-0.448-1-1-1zM18.586 11h-9.586c-0.552 0-1 0.448-1 1s0.448 1 1 1h9.586l-3.293 3.293c-0.391 0.391-0.391 1.024 0 1.414s1.024 0.391 1.414 0l5-5c0.096-0.096 0.168-0.206 0.217-0.324 0.15-0.362 0.078-0.795-0.217-1.090l-5-5c-0.391-0.391-1.024-0.391-1.414 0s-0.391 1.024 0 1.414z"></path>
</symbol>
<symbol id="icon-mail" viewBox="0 0 24 24">
<title>mail</title>
<path d="M3 7.921l8.427 5.899c0.34 0.235 0.795 0.246 1.147 0l8.426-5.899v10.079c0 0.272-0.11 0.521-0.295 0.705s-0.433 0.295-0.705 0.295h-16c-0.272 0-0.521-0.11-0.705-0.295s-0.295-0.433-0.295-0.705zM1 6.012v11.988c0 0.828 0.34 1.579 0.88 2.12s1.292 0.88 2.12 0.88h16c0.828 0 1.579-0.34 2.12-0.88s0.88-1.292 0.88-2.12v-11.988c0-0.010 0-0.020 0-0.030-0.005-0.821-0.343-1.565-0.88-2.102-0.541-0.54-1.292-0.88-2.12-0.88h-16c-0.828 0-1.579 0.34-2.12 0.88-0.537 0.537-0.875 1.281-0.88 2.103 0 0.005 0 0.011 0 0.017zM20.894 5.554l-8.894 6.225-8.894-6.225c0.048-0.096 0.112-0.183 0.188-0.259 0.185-0.185 0.434-0.295 0.706-0.295h16c0.272 0 0.521 0.11 0.705 0.295 0.076 0.076 0.14 0.164 0.188 0.259z"></path>
</symbol>
<symbol id="icon-map-pin" viewBox="0 0 24 24">
<title>map-pin</title>
<path d="M22 10c0-2.761-1.12-5.263-2.929-7.071s-4.31-2.929-7.071-2.929-5.263 1.12-7.071 2.929-2.929 4.31-2.929 7.071c0 0.569 0.053 1.128 0.15 1.676 0.274 1.548 0.899 3.004 1.682 4.32 2.732 4.591 7.613 7.836 7.613 7.836 0.331 0.217 0.765 0.229 1.109 0 0 0 4.882-3.245 7.613-7.836 0.783-1.316 1.408-2.772 1.682-4.32 0.098-0.548 0.151-1.107 0.151-1.676zM20 10c0 0.444-0.041 0.887-0.119 1.328-0.221 1.25-0.737 2.478-1.432 3.646-1.952 3.28-5.166 5.851-6.449 6.799-1.284-0.948-4.497-3.519-6.449-6.799-0.695-1.168-1.211-2.396-1.432-3.646-0.078-0.441-0.119-0.884-0.119-1.328 0-2.209 0.894-4.208 2.343-5.657s3.448-2.343 5.657-2.343 4.208 0.894 5.657 2.343 2.343 3.448 2.343 5.657zM16 10c0-1.104-0.449-2.106-1.172-2.828s-1.724-1.172-2.828-1.172-2.106 0.449-2.828 1.172-1.172 1.724-1.172 2.828 0.449 2.106 1.172 2.828 1.724 1.172 2.828 1.172 2.106-0.449 2.828-1.172 1.172-1.724 1.172-2.828zM14 10c0 0.553-0.223 1.051-0.586 1.414s-0.861 0.586-1.414 0.586-1.051-0.223-1.414-0.586-0.586-0.861-0.586-1.414 0.223-1.051 0.586-1.414 0.861-0.586 1.414-0.586 1.051 0.223 1.414 0.586 0.586 0.861 0.586 1.414z"></path>
</symbol>
<symbol id="icon-menu" viewBox="0 0 24 24">
<title>menu</title>
<path d="M3 13h18c0.552 0 1-0.448 1-1s-0.448-1-1-1h-18c-0.552 0-1 0.448-1 1s0.448 1 1 1zM3 7h18c0.552 0 1-0.448 1-1s-0.448-1-1-1h-18c-0.552 0-1 0.448-1 1s0.448 1 1 1zM3 19h18c0.552 0 1-0.448 1-1s-0.448-1-1-1h-18c-0.552 0-1 0.448-1 1s0.448 1 1 1z"></path>
</symbol>
<symbol id="icon-message" viewBox="0 0 24 24">
<title>message</title>
<path d="M22 15v-10c0-0.828-0.337-1.58-0.879-2.121s-1.293-0.879-2.121-0.879h-14c-0.828 0-1.58 0.337-2.121 0.879s-0.879 1.293-0.879 2.121v16c0 0.256 0.098 0.512 0.293 0.707 0.391 0.391 1.024 0.391 1.414 0l3.707-3.707h11.586c0.828 0 1.58-0.337 2.121-0.879s0.879-1.293 0.879-2.121zM20 15c0 0.276-0.111 0.525-0.293 0.707s-0.431 0.293-0.707 0.293h-12c-0.276 0-0.526 0.112-0.707 0.293l-2.293 2.293v-13.586c0-0.276 0.111-0.525 0.293-0.707s0.431-0.293 0.707-0.293h14c0.276 0 0.525 0.111 0.707 0.293s0.293 0.431 0.293 0.707z"></path>
</symbol>
<symbol id="icon-more-horizontal" viewBox="0 0 24 24">
<title>more-horizontal</title>
<path d="M14 12c0-0.552-0.225-1.053-0.586-1.414s-0.862-0.586-1.414-0.586-1.053 0.225-1.414 0.586-0.586 0.862-0.586 1.414 0.225 1.053 0.586 1.414 0.862 0.586 1.414 0.586 1.053-0.225 1.414-0.586 0.586-0.862 0.586-1.414zM21 12c0-0.552-0.225-1.053-0.586-1.414s-0.862-0.586-1.414-0.586-1.053 0.225-1.414 0.586-0.586 0.862-0.586 1.414 0.225 1.053 0.586 1.414 0.862 0.586 1.414 0.586 1.053-0.225 1.414-0.586 0.586-0.862 0.586-1.414zM7 12c0-0.552-0.225-1.053-0.586-1.414s-0.862-0.586-1.414-0.586-1.053 0.225-1.414 0.586-0.586 0.862-0.586 1.414 0.225 1.053 0.586 1.414 0.862 0.586 1.414 0.586 1.053-0.225 1.414-0.586 0.586-0.862 0.586-1.414z"></path>
</symbol>
<symbol id="icon-more-vertical" viewBox="0 0 24 24">
<title>more-vertical</title>
<path d="M14 12c0-0.552-0.225-1.053-0.586-1.414s-0.862-0.586-1.414-0.586-1.053 0.225-1.414 0.586-0.586 0.862-0.586 1.414 0.225 1.053 0.586 1.414 0.862 0.586 1.414 0.586 1.053-0.225 1.414-0.586 0.586-0.862 0.586-1.414zM14 5c0-0.552-0.225-1.053-0.586-1.414s-0.862-0.586-1.414-0.586-1.053 0.225-1.414 0.586-0.586 0.862-0.586 1.414 0.225 1.053 0.586 1.414 0.862 0.586 1.414 0.586 1.053-0.225 1.414-0.586 0.586-0.862 0.586-1.414zM14 19c0-0.552-0.225-1.053-0.586-1.414s-0.862-0.586-1.414-0.586-1.053 0.225-1.414 0.586-0.586 0.862-0.586 1.414 0.225 1.053 0.586 1.414 0.862 0.586 1.414 0.586 1.053-0.225 1.414-0.586 0.586-0.862 0.586-1.414z"></path>
</symbol>
<symbol id="icon-phone" viewBox="0 0 24 24">
<title>phone</title>
<path d="M23 16.92c0.016-0.714-0.236-1.404-0.673-1.943-0.46-0.566-1.129-0.967-1.925-1.080-0.8-0.098-1.695-0.314-2.586-0.646-0.433-0.159-0.893-0.218-1.344-0.174-0.663 0.064-1.307 0.349-1.819 0.855l-0.72 0.72c-1.77-1.117-3.36-2.667-4.583-4.589l0.726-0.726c0.322-0.33 0.563-0.726 0.707-1.156 0.212-0.632 0.214-1.336-0.039-2.011-0.289-0.753-0.518-1.644-0.644-2.595-0.104-0.715-0.455-1.347-0.963-1.805-0.539-0.485-1.256-0.778-2.027-0.77h-2.996c-0.088 0-0.182 0.004-0.273 0.012-0.824 0.075-1.542 0.478-2.033 1.066s-0.758 1.367-0.683 2.199c0.3 3.076 1.365 6.243 3.216 9.102 1.502 2.413 3.648 4.623 6.298 6.306 2.568 1.697 5.684 2.862 9.086 3.231 0.092 0.009 0.191 0.013 0.288 0.013 0.828-0.003 1.578-0.343 2.118-0.887s0.873-1.297 0.87-2.121zM21 16.92v3c0.001 0.28-0.109 0.53-0.29 0.712s-0.429 0.295-0.706 0.296l-0.088-0.004c-3.060-0.333-5.873-1.388-8.174-2.909-2.428-1.543-4.359-3.538-5.702-5.694-1.697-2.62-2.655-5.481-2.924-8.238-0.024-0.268 0.064-0.526 0.229-0.724s0.403-0.33 0.678-0.355l3.087-0.004c0.271-0.003 0.507 0.094 0.687 0.256 0.17 0.154 0.288 0.366 0.323 0.608 0.142 1.072 0.408 2.117 0.757 3.025 0.081 0.216 0.080 0.447 0.010 0.658-0.049 0.145-0.131 0.281-0.242 0.395l-1.262 1.261c-0.324 0.324-0.379 0.814-0.162 1.201 1.584 2.785 3.839 4.957 6.381 6.378 0.397 0.222 0.882 0.144 1.195-0.166l1.27-1.27c0.166-0.164 0.377-0.257 0.598-0.279 0.152-0.015 0.31 0.005 0.459 0.060 1.022 0.381 2.070 0.636 3.034 0.754 0.241 0.034 0.462 0.166 0.615 0.355 0.147 0.181 0.231 0.412 0.226 0.682z"></path>
</symbol>
<symbol id="icon-plus" viewBox="0 0 24 24">
<title>plus</title>
<path d="M5 13h6v6c0 0.552 0.448 1 1 1s1-0.448 1-1v-6h6c0.552 0 1-0.448 1-1s-0.448-1-1-1h-6v-6c0-0.552-0.448-1-1-1s-1 0.448-1 1v6h-6c-0.552 0-1 0.448-1 1s0.448 1 1 1z"></path>
</symbol>
<symbol id="icon-share" viewBox="0 0 24 24">
<title>share</title>
<path d="M16.214 18.098c0.025-0.033 0.048-0.067 0.070-0.104 0.020-0.035 0.038-0.071 0.054-0.107 0.073-0.108 0.156-0.209 0.248-0.301 0.363-0.363 0.861-0.586 1.414-0.586s1.051 0.223 1.414 0.586 0.586 0.861 0.586 1.414-0.223 1.051-0.586 1.414-0.861 0.586-1.414 0.586-1.051-0.223-1.414-0.586-0.586-0.861-0.586-1.414c0-0.325 0.077-0.631 0.214-0.902zM16.301 6.056c-0.009-0.017-0.018-0.034-0.028-0.051s-0.020-0.034-0.031-0.050c-0.154-0.283-0.242-0.608-0.242-0.955 0-0.553 0.223-1.051 0.586-1.414s0.861-0.586 1.414-0.586 1.051 0.223 1.414 0.586 0.586 0.861 0.586 1.414-0.223 1.051-0.586 1.414-0.861 0.586-1.414 0.586-1.051-0.223-1.414-0.586c-0.108-0.108-0.204-0.228-0.285-0.358zM7.699 10.944c0.009 0.017 0.018 0.034 0.028 0.051s0.020 0.034 0.031 0.050c0.154 0.283 0.242 0.608 0.242 0.955s-0.088 0.672-0.243 0.956c-0.011 0.016-0.021 0.033-0.031 0.050s-0.019 0.033-0.027 0.050c-0.081 0.13-0.177 0.25-0.285 0.358-0.363 0.363-0.861 0.586-1.414 0.586s-1.051-0.223-1.414-0.586-0.586-0.861-0.586-1.414 0.223-1.051 0.586-1.414 0.861-0.586 1.414-0.586 1.051 0.223 1.414 0.586c0.108 0.108 0.204 0.228 0.285 0.358zM14.15 6.088l-5.308 3.097c-0.004-0.005-0.009-0.009-0.014-0.014-0.722-0.722-1.724-1.171-2.828-1.171s-2.106 0.449-2.828 1.172-1.172 1.724-1.172 2.828 0.449 2.106 1.172 2.828 1.724 1.172 2.828 1.172 2.106-0.449 2.828-1.172c0.005-0.005 0.009-0.009 0.014-0.014l5.309 3.094c-0.098 0.347-0.151 0.714-0.151 1.092 0 1.104 0.449 2.106 1.172 2.828s1.724 1.172 2.828 1.172 2.106-0.449 2.828-1.172 1.172-1.724 1.172-2.828-0.449-2.106-1.172-2.828-1.724-1.172-2.828-1.172-2.106 0.449-2.828 1.172c-0.003 0.003-0.007 0.007-0.010 0.010l-5.312-3.095c0.098-0.346 0.15-0.71 0.15-1.087s-0.052-0.742-0.15-1.088l5.308-3.098c0.004 0.005 0.009 0.009 0.014 0.014 0.722 0.723 1.724 1.172 2.828 1.172s2.106-0.449 2.828-1.172 1.172-1.724 1.172-2.828-0.449-2.106-1.172-2.828-1.724-1.172-2.828-1.172-2.106 0.449-2.828 1.172-1.172 1.724-1.172 2.828c0 0.377 0.052 0.742 0.15 1.088z"></path>
</symbol>
<symbol id="icon-settings" viewBox="0 0 24 24">
<title>settings</title>
<path d="M16 12c0-1.104-0.449-2.106-1.172-2.828s-1.724-1.172-2.828-1.172-2.106 0.449-2.828 1.172-1.172 1.724-1.172 2.828 0.449 2.106 1.172 2.828 1.724 1.172 2.828 1.172 2.106-0.449 2.828-1.172 1.172-1.724 1.172-2.828zM14 12c0 0.553-0.223 1.051-0.586 1.414s-0.861 0.586-1.414 0.586-1.051-0.223-1.414-0.586-0.586-0.861-0.586-1.414 0.223-1.051 0.586-1.414 0.861-0.586 1.414-0.586 1.051 0.223 1.414 0.586 0.586 0.861 0.586 1.414zM20.315 15.404c0.046-0.105 0.112-0.191 0.192-0.257 0.112-0.092 0.251-0.146 0.403-0.147h0.090c0.828 0 1.58-0.337 2.121-0.879s0.879-1.293 0.879-2.121-0.337-1.58-0.879-2.121-1.293-0.879-2.121-0.879h-0.159c-0.11-0.001-0.215-0.028-0.308-0.076-0.127-0.066-0.23-0.172-0.292-0.312-0.003-0.029-0.004-0.059-0.004-0.089-0.046-0.106-0.064-0.219-0.054-0.328 0.012-0.145 0.072-0.283 0.174-0.387l0.062-0.062c0.585-0.586 0.878-1.356 0.877-2.122s-0.294-1.536-0.881-2.122c-0.586-0.585-1.356-0.878-2.122-0.877s-1.536 0.294-2.12 0.879l-0.047 0.046c-0.083 0.080-0.183 0.136-0.288 0.166-0.14 0.039-0.291 0.032-0.437-0.033-0.101-0.044-0.187-0.11-0.253-0.19-0.093-0.112-0.147-0.251-0.148-0.403v-0.090c0-0.828-0.337-1.58-0.879-2.121s-1.293-0.879-2.121-0.879-1.58 0.337-2.121 0.879-0.879 1.293-0.879 2.121v0.159c-0.001 0.11-0.028 0.215-0.076 0.308-0.066 0.127-0.172 0.23-0.312 0.292-0.029 0.003-0.059 0.004-0.089 0.004-0.106 0.046-0.219 0.064-0.328 0.054-0.145-0.013-0.284-0.072-0.388-0.174l-0.062-0.062c-0.586-0.585-1.355-0.878-2.122-0.878s-1.535 0.294-2.122 0.882c-0.585 0.586-0.878 1.355-0.878 2.122s0.294 1.536 0.879 2.12l0.048 0.047c0.080 0.083 0.136 0.183 0.166 0.288 0.039 0.14 0.032 0.291-0.031 0.434-0.006 0.016-0.013 0.034-0.021 0.052-0.041 0.109-0.108 0.203-0.191 0.275-0.11 0.095-0.25 0.153-0.383 0.156h-0.090c-0.828 0-1.58 0.337-2.121 0.879s-0.879 1.294-0.879 2.122 0.337 1.58 0.879 2.121 1.293 0.879 2.121 0.879h0.159c0.11 0.001 0.215 0.028 0.308 0.076 0.128 0.067 0.233 0.174 0.296 0.321 0.046 0.106 0.064 0.219 0.054 0.328-0.012 0.145-0.072 0.283-0.174 0.387l-0.062 0.062c-0.585 0.586-0.878 1.356-0.877 2.122s0.294 1.536 0.881 2.122c0.586 0.585 1.356 0.878 2.122 0.877s1.536-0.294 2.12-0.879l0.047-0.048c0.083-0.080 0.183-0.136 0.288-0.166 0.14-0.039 0.291-0.032 0.434 0.031 0.016 0.006 0.034 0.013 0.052 0.021 0.109 0.041 0.203 0.108 0.275 0.191 0.095 0.11 0.153 0.25 0.156 0.383v0.092c0 0.828 0.337 1.58 0.879 2.121s1.294 0.879 2.122 0.879 1.58-0.337 2.121-0.879 0.879-1.293 0.879-2.121v-0.159c0.001-0.11 0.028-0.215 0.076-0.308 0.067-0.128 0.174-0.233 0.321-0.296 0.106-0.046 0.219-0.064 0.328-0.054 0.145 0.012 0.283 0.072 0.387 0.174l0.062 0.062c0.586 0.585 1.356 0.878 2.122 0.877s1.536-0.294 2.122-0.881c0.585-0.586 0.878-1.356 0.877-2.122s-0.294-1.536-0.879-2.12l-0.048-0.047c-0.080-0.083-0.136-0.183-0.166-0.288-0.039-0.14-0.032-0.291 0.031-0.434zM18.485 14.596c-0.257 0.582-0.288 1.21-0.127 1.782 0.119 0.423 0.341 0.814 0.652 1.137l0.072 0.073c0.196 0.196 0.294 0.45 0.294 0.707s-0.097 0.512-0.292 0.707c-0.197 0.197-0.451 0.295-0.709 0.295s-0.512-0.097-0.707-0.292l-0.061-0.061c-0.463-0.453-1.040-0.702-1.631-0.752-0.437-0.037-0.882 0.034-1.293 0.212-0.578 0.248-1.027 0.683-1.3 1.206-0.193 0.371-0.298 0.785-0.303 1.211v0.181c0 0.276-0.111 0.525-0.293 0.707s-0.431 0.291-0.707 0.291-0.525-0.111-0.707-0.293-0.293-0.431-0.293-0.707v-0.090c-0.015-0.66-0.255-1.242-0.644-1.692-0.284-0.328-0.646-0.585-1.058-0.745-0.575-0.246-1.193-0.274-1.756-0.116-0.423 0.119-0.814 0.341-1.137 0.652l-0.073 0.072c-0.196 0.196-0.45 0.294-0.707 0.294s-0.512-0.097-0.707-0.292c-0.197-0.197-0.295-0.451-0.295-0.709s0.097-0.512 0.292-0.707l0.061-0.061c0.453-0.463 0.702-1.040 0.752-1.631 0.037-0.437-0.034-0.882-0.212-1.293-0.248-0.578-0.683-1.027-1.206-1.3-0.371-0.193-0.785-0.298-1.211-0.303l-0.179 0.001c-0.276 0-0.525-0.111-0.707-0.293s-0.293-0.431-0.293-0.707 0.111-0.525 0.293-0.707 0.431-0.293 0.707-0.293h0.090c0.66-0.015 1.242-0.255 1.692-0.644 0.328-0.284 0.585-0.646 0.745-1.058 0.246-0.575 0.273-1.193 0.115-1.756-0.119-0.423-0.341-0.814-0.652-1.136l-0.073-0.073c-0.196-0.196-0.294-0.45-0.294-0.707s0.097-0.512 0.292-0.707c0.197-0.197 0.451-0.295 0.709-0.295s0.512 0.097 0.707 0.292l0.061 0.061c0.463 0.453 1.040 0.702 1.631 0.752 0.37 0.032 0.745-0.014 1.101-0.137 0.096-0.012 0.187-0.037 0.269-0.073 0.582-0.249 1.030-0.684 1.303-1.208 0.194-0.37 0.299-0.785 0.304-1.21v-0.181c0-0.276 0.111-0.525 0.293-0.707s0.431-0.293 0.707-0.293 0.525 0.111 0.707 0.293 0.293 0.431 0.293 0.707v0.090c0.003 0.637 0.228 1.22 0.603 1.675 0.266 0.323 0.607 0.581 0.996 0.751 0.578 0.255 1.206 0.286 1.778 0.126 0.423-0.119 0.814-0.341 1.137-0.652l0.073-0.072c0.196-0.196 0.45-0.294 0.707-0.294s0.512 0.097 0.707 0.292c0.197 0.197 0.295 0.451 0.295 0.709s-0.097 0.512-0.292 0.707l-0.061 0.061c-0.453 0.463-0.702 1.040-0.752 1.631-0.032 0.37 0.014 0.745 0.137 1.101 0.012 0.096 0.037 0.187 0.073 0.269 0.249 0.582 0.684 1.030 1.208 1.303 0.371 0.193 0.785 0.298 1.211 0.303h0.18c0.276 0 0.525 0.111 0.707 0.293s0.293 0.431 0.293 0.707-0.111 0.525-0.293 0.707-0.431 0.293-0.707 0.293h-0.090c-0.637 0.003-1.22 0.228-1.675 0.603-0.323 0.266-0.581 0.607-0.75 0.993z"></path>
</symbol>
<symbol id="icon-trash" viewBox="0 0 24 24">
<title>trash</title>
<path d="M18 7v13c0 0.276-0.111 0.525-0.293 0.707s-0.431 0.293-0.707 0.293h-10c-0.276 0-0.525-0.111-0.707-0.293s-0.293-0.431-0.293-0.707v-13zM17 5v-1c0-0.828-0.337-1.58-0.879-2.121s-1.293-0.879-2.121-0.879h-4c-0.828 0-1.58 0.337-2.121 0.879s-0.879 1.293-0.879 2.121v1h-4c-0.552 0-1 0.448-1 1s0.448 1 1 1h1v13c0 0.828 0.337 1.58 0.879 2.121s1.293 0.879 2.121 0.879h10c0.828 0 1.58-0.337 2.121-0.879s0.879-1.293 0.879-2.121v-13h1c0.552 0 1-0.448 1-1s-0.448-1-1-1zM9 5v-1c0-0.276 0.111-0.525 0.293-0.707s0.431-0.293 0.707-0.293h4c0.276 0 0.525 0.111 0.707 0.293s0.293 0.431 0.293 0.707v1z"></path>
</symbol>
<symbol id="icon-user" viewBox="0 0 24 24">
<title>user</title>
<path d="M21 21v-2c0-1.38-0.561-2.632-1.464-3.536s-2.156-1.464-3.536-1.464h-8c-1.38 0-2.632 0.561-3.536 1.464s-1.464 2.156-1.464 3.536v2c0 0.552 0.448 1 1 1s1-0.448 1-1v-2c0-0.829 0.335-1.577 0.879-2.121s1.292-0.879 2.121-0.879h8c0.829 0 1.577 0.335 2.121 0.879s0.879 1.292 0.879 2.121v2c0 0.552 0.448 1 1 1s1-0.448 1-1zM17 7c0-1.38-0.561-2.632-1.464-3.536s-2.156-1.464-3.536-1.464-2.632 0.561-3.536 1.464-1.464 2.156-1.464 3.536 0.561 2.632 1.464 3.536 2.156 1.464 3.536 1.464 2.632-0.561 3.536-1.464 1.464-2.156 1.464-3.536zM15 7c0 0.829-0.335 1.577-0.879 2.121s-1.292 0.879-2.121 0.879-1.577-0.335-2.121-0.879-0.879-1.292-0.879-2.121 0.335-1.577 0.879-2.121 1.292-0.879 2.121-0.879 1.577 0.335 2.121 0.879 0.879 1.292 0.879 2.121z"></path>
</symbol>
</defs>
</svg>
