<?xml version="1.0" encoding="UTF-8"?>
<svg width="32px" height="32px" viewBox="0 0 32 32" version="1.1" xmlns="http://www.w3.org/2000/svg" xmlns:xlink="http://www.w3.org/1999/xlink">
    <title>logo</title>
    <g id="logo" stroke="none" stroke-width="1" fill="none" fill-rule="evenodd">
        <path d="M17.4692446,2.42646342 C16.8999307,1.85784553 15.9782538,1.85784553 15.410396,2.42646342 L4.42698539,13.3964474 C3.85767154,13.9650653 3.85767154,14.8856155 4.42698539,15.4527791 C4.99629923,16.0199428 5.91797613,16.021397 6.48583393,15.4527791 L16.4398203,5.51096098 L26.5147119,15.5735366 C27.0840258,16.1421545 28.0057027,16.1421545 28.5735605,15.5735366 C29.1414183,15.0049187 29.1428743,14.0843685 28.5735605,13.5172049 L17.4692446,2.42646342 Z" id="Path" fill="#000000" fill-rule="nonzero" transform="translate(16.500000, 9.000000) scale(1, -1) rotate(-180.000000) translate(-16.500000, -9.000000) "></path>
        <path d="M16.5909055,19.0639236 C16.0278655,18.5008836 15.1056845,18.5115446 14.5309308,19.0877383 L3.16168591,30.4569832 C2.58547539,31.0331937 2.57481433,31.9553747 3.13787118,32.5169579 C3.70092802,33.0785411 4.62309223,33.0693368 5.19784591,32.4931432 L15.525196,22.165793 L22.3637786,29.0043756 C22.9268186,29.5674156 23.8630953,29.5708502 24.437849,28.9946565 C25.0126026,28.4184628 25.0106249,27.4821692 24.447568,26.9205861 L16.5909055,19.0639236 Z" id="Path" fill="#000000" fill-rule="nonzero" transform="translate(13.795924, 25.790164) rotate(-135.000000) translate(-13.795924, -25.790164) "></path>
    </g>
</svg>