<!-- Generated by IcoMoon.io -->
<svg version="1.1" xmlns="http://www.w3.org/2000/svg" width="32" height="32" viewBox="0 0 32 32">
<title>insert_emoticon</title>
<path d="M16 23.312q-2.312 0-4.156-1.281t-2.656-3.344h13.625q-0.812 2.063-2.656 3.344t-4.156 1.281zM11.312 14.688q-0.812 0-1.407-0.593t-0.593-1.407 0.593-1.407 1.407-0.593 1.407 0.593 0.593 1.407-0.593 1.407-1.407 0.593zM20.688 14.688q-0.812 0-1.407-0.593t-0.593-1.407 0.593-1.407 1.407-0.593 1.407 0.593 0.593 1.407-0.593 1.407-1.407 0.593zM16 26.688q4.375 0 7.531-3.156t3.156-7.531-3.156-7.531-7.531-3.156-7.531 3.156-3.156 7.531 3.156 7.531 7.531 3.156zM16 2.688q5.5 0 9.407 3.907t3.907 9.407-3.907 9.407-9.407 3.907-9.407-3.907-3.907-9.407 3.907-9.407 9.407-3.907z"></path>
</svg>
